<?xml version="1.0" encoding="UTF-8"?>
<svg width="284" height="20" version="1.1" viewBox="0 0 75.142 5.2917" xmlns="http://www.w3.org/2000/svg" xmlns:cc="http://creativecommons.org/ns#" xmlns:dc="http://purl.org/dc/elements/1.1/" xmlns:rdf="http://www.w3.org/1999/02/22-rdf-syntax-ns#" xmlns:xlink="http://www.w3.org/1999/xlink">
<defs>
<style>.cls-1{fill:#fff;}.cls-2{fill:url(#a);}.cls-3{fill:url(#l);}.cls-4{fill:url(#k);}.cls-5{font-size:22.37px;}.cls-16,.cls-18,.cls-22,.cls-26,.cls-5,.cls-6,.cls-7{fill:#140077;}.cls-16,.cls-26,.cls-5{font-family:Montserrat-ExtraBold, Montserrat ExtraBold;font-weight:800;}.cls-22,.cls-6{font-size:10.65px;}.cls-18,.cls-22,.cls-6{font-family:Roboto-Regular, Roboto;}.cls-8{fill:url(#j);}.cls-9{fill:url(#i);}.cls-10{fill:url(#h);}.cls-11{fill:url(#g);}.cls-12{fill:url(#f);}.cls-13{fill:url(#e);}.cls-14{fill:url(#q);}.cls-15{fill:url(#p);}.cls-16{font-size:26.81px;}.cls-17{letter-spacing:-0.02em;}.cls-18{font-size:10.98px;letter-spacing:0.48em;}.cls-19{letter-spacing:0.45em;}.cls-20{letter-spacing:0.48em;}.cls-21{fill:url(#o);}.cls-22{letter-spacing:0.48em;}.cls-23{letter-spacing:0.45em;}.cls-24{fill:url(#n);}.cls-25{fill:url(#m);}.cls-26{font-size:28.04px;}.cls-27{letter-spacing:-0.08em;}</style>
<linearGradient id="a" x1="413.99" x2="326.99" y1="101.7" y2="195.47" gradientUnits="userSpaceOnUse">
<stop stop-color="#c33764" offset="0"/>
<stop stop-color="#1d2671" offset="1"/>
</linearGradient>
<linearGradient id="l" x1="423.47" x2="336.48" y1="110.51" y2="204.27" xlink:href="#a"/>
<linearGradient id="k" x1="423.48" x2="336.48" y1="110.5" y2="204.27" xlink:href="#a"/>
<linearGradient id="j" x1="183.13" x2="104.23" y1="315.34" y2="401.18" xlink:href="#a"/>
<linearGradient id="i" x1="187.6" x2="108.7" y1="319.45" y2="405.29" xlink:href="#a"/>
<linearGradient id="h" x1="194.66" x2="115.76" y1="325.94" y2="411.78" xlink:href="#a"/>
<linearGradient id="g" x1="203.28" x2="124.37" y1="333.86" y2="419.7" xlink:href="#a"/>
<linearGradient id="f" x1="210.72" x2="131.81" y1="340.7" y2="426.54" xlink:href="#a"/>
<linearGradient id="e" x1="637.38" x2="555.19" y1="324.17" y2="402.93" xlink:href="#a"/>
<linearGradient id="q" x1="422.44" x2="321.38" y1="329.45" y2="411.76" xlink:href="#a"/>
<linearGradient id="p" x1="418.76" x2="317.7" y1="324.94" y2="407.25" xlink:href="#a"/>
<linearGradient id="o" x1="609.54" x2="544.56" y1="91.34" y2="164.31" xlink:href="#a"/>
<linearGradient id="n" x1="186.38" x2="118.4" y1="69.4" y2="162.53" xlink:href="#a"/>
<linearGradient id="m" x1="186.35" x2="118.41" y1="69.44" y2="162.53" xlink:href="#a"/>
<style>.cls-1{fill:#180f43;}.cls-2{fill:url(#s);}.cls-3{fill:url(#r);}.cls-4{fill:url(#a);}.cls-5{fill:url(#l);}.cls-6{fill:url(#k);}.cls-7{fill:url(#j);}.cls-8{fill:url(#i);}.cls-9{fill:url(#h);}.cls-10{fill:url(#g);}.cls-11{fill:url(#f);}.cls-12{fill:url(#e);}.cls-13{fill:url(#q);}.cls-14{fill:url(#p);}.cls-15,.cls-48{font-size:9px;font-family:OpenSans;letter-spacing:0.33em;}.cls-15,.cls-18,.cls-41{fill:#fff;}.cls-16{letter-spacing:0.39em;}.cls-17{letter-spacing:0.4em;}.cls-18,.cls-41{font-size:28.17px;font-family:BebasNeueBold;}.cls-18{letter-spacing:0.1em;}.cls-19{letter-spacing:0.02em;}.cls-20,.cls-41{letter-spacing:0.1em;}.cls-21{fill-rule:evenodd;fill:url(#o);}.cls-22{fill:url(#n);}.cls-23{fill:url(#m);}.cls-24{fill:url(#al);}.cls-25{fill:url(#ak);}.cls-26{fill:url(#aj);}.cls-27{fill:url(#ai);}.cls-28{fill:url(#ah);}.cls-29{fill:url(#ag);}.cls-30{fill:url(#af);}.cls-31{fill:url(#ae);}.cls-32{fill:url(#ad);}.cls-33{fill:url(#ac);}.cls-34{fill:url(#linear-gradient-25);}.cls-35{fill:url(#linear-gradient-26);}.cls-36{fill:url(#ab);}.cls-37{fill:url(#linear-gradient-28);}.cls-38{fill:url(#linear-gradient-29);}.cls-39{fill:url(#linear-gradient-30);}.cls-40{fill:url(#aa);}.cls-42{fill:url(#c);}.cls-43{fill:url(#z);}.cls-44{fill:url(#y);}.cls-45{fill:url(#x);}.cls-46{fill:url(#w);}.cls-47{fill:url(#v);}.cls-48{fill:#6d6e71;}.cls-49,.cls-51{font-size:24.67px;fill:#231f20;font-family:Montserrat-ExtraBold, Montserrat ExtraBold;font-weight:800;}.cls-49{letter-spacing:0.06em;}.cls-50{letter-spacing:0.02em;}.cls-51{letter-spacing:0.1em;}.cls-52{fill:url(#d);}.cls-53{fill:url(#u);}.cls-54{fill:url(#t);}</style>
<radialGradient id="s" cx="132.32" cy="435.04" r="248.57" gradientTransform="matrix(.63 0 0 .68 292.3 80.69)" gradientUnits="userSpaceOnUse">
<stop stop-color="#fff" stop-opacity="0" offset="0"/>
<stop stop-color="#fff" stop-opacity=".02" offset=".13"/>
<stop stop-color="#fdfdfd" stop-opacity=".07" offset=".26"/>
<stop stop-color="#fbfbfb" stop-opacity=".16" offset=".39"/>
<stop stop-color="#f8f8f8" stop-opacity=".29" offset=".53"/>
<stop stop-color="#f4f4f5" stop-opacity=".45" offset=".66"/>
<stop stop-color="#efeff0" stop-opacity=".65" offset=".8"/>
<stop stop-color="#e9eaeb" stop-opacity=".88" offset=".94"/>
<stop stop-color="#e6e7e8" offset="1"/>
</radialGradient>
<radialGradient id="r" cx="-267.68" cy="65.49" r="269.1" gradientTransform="matrix(.63 0 0 .68 292.3 80.69)" gradientUnits="userSpaceOnUse">
<stop stop-color="#fff" stop-opacity="0" offset="0"/>
<stop stop-color="#fefefe" stop-opacity=".03" offset=".1"/>
<stop stop-color="#fdfdfd" stop-opacity=".1" offset=".23"/>
<stop stop-color="#f9fafa" stop-opacity=".22" offset=".38"/>
<stop stop-color="#f5f6f6" stop-opacity=".39" offset=".55"/>
<stop stop-color="#f0f0f1" stop-opacity=".61" offset=".73"/>
<stop stop-color="#e9eaeb" stop-opacity=".87" offset=".91"/>
<stop stop-color="#e6e7e8" offset="1"/>
</radialGradient>
<linearGradient id="b" x1="321.33" x2="430.81" y1="107.33" y2="107.33" gradientUnits="userSpaceOnUse">
<stop stop-color="#fc1b7c" offset="0"/>
<stop stop-color="#714cf4" offset=".49"/>
<stop stop-color="#0084f3" offset="1"/>
</linearGradient>
<linearGradient id="al" x1="321.33" x2="430.81" y1="129.68" y2="129.68" gradientTransform="matrix(.26458 0 0 .26458 -221.2 166.16)" xlink:href="#b"/>
<linearGradient id="ak" x1="321.34" x2="430.8" y1="114.78" y2="114.78" gradientTransform="matrix(.26458 0 0 .26458 -221.2 166.16)" xlink:href="#b"/>
<linearGradient id="aj" x1="321.34" x2="430.8" y1="122.23" y2="122.23" xlink:href="#b"/>
<linearGradient id="ai" x1="321.34" x2="430.8" y1="129.68" y2="129.68" xlink:href="#b"/>
<linearGradient id="ah" x1="321.33" x2="430.8" y1="92.42" y2="92.42" gradientTransform="matrix(.26458 0 0 .26458 -221.2 166.16)" xlink:href="#b"/>
<linearGradient id="ag" x1="321.33" x2="430.8" y1="99.88" y2="99.88" gradientTransform="matrix(.26458 0 0 .26458 -221.2 166.16)" xlink:href="#b"/>
<linearGradient id="af" x1="321.33" x2="430.8" y1="107.33" y2="107.33" gradientTransform="matrix(.26458 0 0 .26458 -221.2 166.16)" xlink:href="#b"/>
<linearGradient id="ae" x1="321.33" x2="430.8" y1="114.78" y2="114.78" gradientTransform="matrix(.26458 0 0 .26458 -221.2 166.16)" xlink:href="#b"/>
<linearGradient id="ad" x1="321.33" x2="430.8" y1="122.23" y2="122.23" gradientTransform="matrix(.26458 0 0 .26458 -221.2 166.16)" xlink:href="#b"/>
<linearGradient id="ac" x1="321.33" x2="430.8" y1="129.68" y2="129.68" gradientTransform="matrix(.26458 0 0 .26458 -221.2 166.16)" xlink:href="#b"/>
<linearGradient id="ab" x1="321.33" x2="430.81" y1="107.33" y2="107.33" gradientTransform="matrix(.26458 0 0 .26458 -221.2 166.16)" xlink:href="#b"/>
<linearGradient id="aa" x1="321.33" x2="430.8" y1="96.77" y2="96.77" gradientTransform="matrix(.26458 0 0 .26458 -221.2 166.16)" xlink:href="#b"/>
<linearGradient id="c" x1="317.16" x2="388.11" y1="350.89" y2="350.89" gradientUnits="userSpaceOnUse">
<stop stop-color="#18eff2" offset="0"/>
<stop stop-color="#109ef5" offset=".5"/>
<stop stop-color="#144ccb" offset="1"/>
</linearGradient>
<linearGradient id="z" x1="317.16" x2="388.11" y1="327.59" y2="327.59" gradientTransform="matrix(.26458 0 0 .26458 -221.2 166.16)" xlink:href="#c"/>
<linearGradient id="y" x1="444.24" x2="524.74" y1="164.82" y2="164.82" gradientTransform="matrix(.1685 -.16826 .16826 .1685 -220.82 311.44)" xlink:href="#c"/>
<linearGradient id="x" x1="442.69" x2="523.65" y1="162.77" y2="162.77" gradientTransform="matrix(.1685 -.16826 .16826 .1685 -220.82 311.44)" xlink:href="#c"/>
<linearGradient id="w" x1="445.85" x2="526.93" y1="174.97" y2="174.97" gradientTransform="matrix(.1685 -.16826 .16826 .1685 -220.82 311.44)" xlink:href="#c"/>
<linearGradient id="v" x1="447.23" x2="529.36" y1="183.39" y2="183.39" gradientTransform="matrix(.1685 -.16826 .16826 .1685 -220.82 311.44)" xlink:href="#c"/>
<linearGradient id="d" x1="52.28" x2="197.25" y1="108.99" y2="108.99" gradientUnits="userSpaceOnUse">
<stop stop-color="#f23514" offset="0"/>
<stop stop-color="#f87458" offset=".49"/>
<stop stop-color="#f6e813" offset="1"/>
</linearGradient>
<linearGradient id="u" x1="52.28" x2="197.25" y1="108.99" y2="108.99" gradientTransform="matrix(.26458 0 0 .26458 -207.05 125.02)" xlink:href="#d"/>
<linearGradient id="t" x1="52.28" x2="197.25" y1="96.57" y2="96.57" gradientTransform="matrix(.26458 0 0 .26458 -207.05 125.02)" xlink:href="#d"/>
<style>.cls-1{fill:#746a9d;}.cls-2{fill:#00b1c3;}.cls-3{fill:#60c4e0;}.cls-4{fill:#009fb4;}.cls-5{fill:#0087ac;}.cls-6{fill:#443d5c;}.cls-7{fill:#7ea3d6;}.cls-8{fill:#c8698b;}.cls-9{fill:#0093ab;}.cls-10{fill:#6a3d78;}</style>
<style>.cls-1{fill:#fff;}.cls-2{fill:#129ad6;}.cls-3{fill:#e03339;}.cls-4{fill:#fcdd10;}.cls-5{fill:#89c94e;}</style>
</defs>
<metadata>
<rdf:RDF>
<cc:Work rdf:about="">
<dc:format>image/svg+xml</dc:format>
<dc:type rdf:resource="http://purl.org/dc/dcmitype/StillImage"/>
</cc:Work>
</rdf:RDF>
</metadata>
<g transform="translate(-34.798 14.032)">
<circle cx="88.321" cy="-9.5337" r=".79375" fill="#4285f4" stroke-width=".10205"/>
<g transform="translate(34.798 -14.032)" fill="#6b7280">
<g fill="#6b7280" stroke-width=".18197">
<path d="m22.656 1.8488q-0.0946-0.15285-0.26932-0.23292-0.17469-0.087345-0.42217-0.087345-0.46584 0-0.72059 0.30571-0.25476 0.29843-0.25476 0.8225 0 0.60414 0.28387 0.90257 0.28387 0.29843 0.87345 0.29843 0.56047 0 0.90257-0.45128h-1.2883v-1.1428h2.6276v1.6159q-0.33482 0.57502-0.9244 0.98991-0.58958 0.40761-1.4922 0.40761-0.80066 0-1.3975-0.32754-0.58958-0.33482-0.90985-0.93168-0.31298-0.59686-0.31298-1.3611 0-0.76427 0.31298-1.3611 0.32027-0.59686 0.90985-0.9244 0.58958-0.33482 1.383-0.33482 1.0117 0 1.645 0.48768 0.64053 0.48768 0.75699 1.3247z"/>
<path d="m27.599 5.2407-0.96807-1.8488h-7e-3v1.8488h-1.6159v-5.1534h2.402q0.62597 0 1.07 0.22564 0.444 0.21836 0.66236 0.60414 0.22565 0.3785 0.22565 0.85889 0 0.51679-0.29116 0.91712-0.28387 0.40033-0.8225 0.57502l1.1209 1.9725zm-0.97535-2.9261h0.64053q0.23292 0 0.34938-0.1019 0.11646-0.10918 0.11646-0.33482 0-0.20381-0.12374-0.32027-0.11646-0.11646-0.3421-0.11646h-0.64053z"/>
<path d="m32.433 5.2917q-0.72787 0-1.3393-0.3421-0.60414-0.3421-0.9608-0.94624t-0.35666-1.3611q0-0.75699 0.35666-1.3611t0.9608-0.93896q0.61142-0.3421 1.3393-0.3421 0.72788 0 1.332 0.3421 0.60414 0.33482 0.95352 0.93896 0.35666 0.60414 0.35666 1.3611 0 0.75699-0.35666 1.3611-0.34938 0.60414-0.9608 0.94624-0.60414 0.3421-1.3247 0.3421zm0-1.5067q0.4804 0 0.74244-0.30571 0.26203-0.31299 0.26203-0.83706 0-0.53135-0.26203-0.83706-0.26204-0.31299-0.74244-0.31299-0.48767 0-0.74971 0.31299-0.26204 0.30571-0.26204 0.83706 0 0.52407 0.26204 0.83706 0.26204 0.30571 0.74971 0.30571z"/>
<path d="m37.275 0.087346v2.9042q0 0.35666 0.15286 0.56774 0.16013 0.2038 0.50951 0.2038t0.51679-0.2038q0.16742-0.21108 0.16742-0.56774v-2.9042h1.6086v2.9042q0 0.73516-0.3057 1.2592-0.30571 0.51679-0.83706 0.77883-0.53135 0.26204-1.1864 0.26204t-1.1646-0.26204q-0.50223-0.26204-0.7861-0.77883t-0.28387-1.2592v-2.9042z"/>
<path d="m45.908 5.2407h-1.6159l-1.7105-2.5912v2.5912h-1.6159v-5.1534h1.6159l1.7105 2.6349v-2.6349h1.6159z"/>
<path d="m48.821 0.087346q0.80794 0 1.4121 0.32754 0.61141 0.32754 0.93896 0.90985 0.32754 0.5823 0.32754 1.3247 0 0.73516-0.32754 1.3247-0.32755 0.58958-0.93896 0.93168-0.60414 0.33482-1.4121 0.33482h-2.1472v-5.1534zm-0.14558 3.7122q0.54591 0 0.86617-0.29843 0.32027-0.29843 0.32027-0.85162 0-0.55319-0.32027-0.85162-0.32026-0.29843-0.86617-0.29843h-0.38577v2.3001z"/>
</g>
</g>
<g transform="translate(34.798 -14.032)" fill="#6b7280" stroke-width=".12916" aria-label="AFRICA">
<path d="m58.155 4.6717h-1.2916l-0.19632 0.59411h-1.0642l1.3277-3.6422h1.1676l1.3225 3.6422h-1.0694zm-0.25314-0.77493-0.39263-1.1779-0.38746 1.1779z"/>
<path d="m62.221 1.6237v0.80593h-1.4569v0.64061h1.0746v0.76976h-1.0746v1.4259h-1.0126v-3.6422z"/>
<path d="m64.494 5.2658-0.72327-1.3432h-0.10849v1.3432h-1.0126v-3.6422h1.5964q0.43913 0 0.74393 0.15499 0.30481 0.14982 0.45979 0.41846 0.15499 0.26348 0.15499 0.59411 0 0.37197-0.20665 0.65611-0.20148 0.27897-0.59411 0.3978l0.82143 1.4207zm-0.83176-2.0355h0.50112q0.20665 0 0.30997-0.098158t0.10332-0.28414q0-0.17565-0.10849-0.27381-0.10332-0.10332-0.30481-0.10332h-0.50112z"/>
<path d="m67.077 1.6237v3.6422h-1.0126v-3.6422z"/>
<path d="m67.532 3.437q0-0.53728 0.22215-0.95575 0.22731-0.42363 0.64061-0.65611 0.4133-0.23765 0.95058-0.23765 0.68194 0 1.1469 0.3668 0.46496 0.36163 0.59928 0.98674h-1.0901q-0.09816-0.20665-0.27381-0.31514-0.17048-0.10849-0.3978-0.10849-0.3513 0-0.56312 0.25314-0.20665 0.24798-0.20665 0.66644 0 0.42363 0.20665 0.67677 0.21181 0.24798 0.56312 0.24798 0.22731 0 0.3978-0.10849 0.17565-0.10849 0.27381-0.31514h1.0901q-0.13432 0.62511-0.59928 0.99191-0.46496 0.36163-1.1469 0.36163-0.53728 0-0.95058-0.23248-0.4133-0.23765-0.64061-0.65611-0.22215-0.42363-0.22215-0.96608z"/>
<path d="m73.876 4.6717h-1.2916l-0.19632 0.59411h-1.0642l1.3277-3.6422h1.1676l1.3225 3.6422h-1.0694zm-0.25314-0.77493-0.39263-1.1779-0.38746 1.1779z"/>
</g>
<path d="m39.013-12.194q0 0.48768-0.22564 0.88801-0.22565 0.39305-0.66965 0.62597-0.43673 0.23292-1.0627 0.23292h-0.64053v1.6377h-1.6159v-5.1534h2.2564q0.94624 0 1.4485 0.4804 0.50952 0.4804 0.50952 1.2883zm-2.14 0.47312q0.50223 0 0.50223-0.47312t-0.50223-0.47312h-0.45856v0.94624z" fill="#4285f4" stroke-width=".18197"/>
<path d="m41.176-10.032h1.5577v1.2228h-3.1736v-5.1534h1.6159z" fill="#34a853" stroke-width=".18197"/>
<path d="m46.585-9.588h-1.7178l-0.25476 0.77883h-1.696l1.8852-5.1534h1.8634l1.8779 5.1534h-1.7032zm-0.39305-1.2156-0.46584-1.4339-0.46584 1.4339z" fill="#f59e0b" stroke-width=".18197"/>
<path d="m53.894-13.962-1.8488 3.5884v1.5649h-1.6159v-1.5649l-1.8488-3.5884h1.8488l0.8225 1.827 0.8225-1.827z" fill="#e94235" stroke-width=".18197"/>
</g>
</svg>
